# xmcd CD database file
#
# Track frame offsets:
#	150
#	12618
#	25019
#	40327
#	58809
#	72360
#	87983
#	100979
#	126177
#	138032
#
# Disc length: 2017 seconds
#
# Revision: 0
# Processed by: cddbd v1.5.2PL0 Copyright (c) Steve Scherf et al.
# Submitted via: CDex 1.70beta2
#
DISCID=8707df0a
DTITLE=Downchild Blues Band - Straight Up
DYEAR=1900
DGENRE=Blues
TTITLE0=Everyday I Have The Blues
TTITLE1=I Got Everything I Need (Almost)
TTITLE2=York County
TTITLE3=Can't Lose What You Never Had
TTITLE4=Flip, Flop and Fly
TTITLE5=Good Morning Blues
TTITLE6=Bring It On Home
TTITLE7=Shotgun Blues
TTITLE8=Dig Myself A Hole
TTITLE9=Everything's Gonna Be Alright
EXTD=
EXTT0=
EXTT1=
EXTT2=
EXTT3=
EXTT4=
EXTT5=
EXTT6=
EXTT7=
EXTT8=
EXTT9=
PLAYORDER=
